<svg width="24" height="25" viewBox="0 0 24 25" fill="none" xmlns="http://www.w3.org/2000/svg">
<path d="M16.5 11.375C16.5 12.4875 16.1701 13.5751 15.552 14.5001C14.934 15.4251 14.0555 16.1461 13.0276 16.5718C11.9998 16.9976 10.8688 17.109 9.77764 16.8919C8.6865 16.6749 7.68422 16.1392 6.89755 15.3525C6.11088 14.5658 5.57515 13.5635 5.35811 12.4724C5.14106 11.3813 5.25246 10.2503 5.6782 9.22243C6.10394 8.19459 6.82491 7.31609 7.74994 6.69801C8.67497 6.07992 9.7625 5.75002 10.875 5.75002C12.3669 5.75002 13.7976 6.34266 14.8525 7.39755C15.9074 8.45244 16.5 9.88318 16.5 11.375ZM21.5344 22.0344C21.391 22.173 21.1994 22.2505 21 22.2505C20.8006 22.2505 20.609 22.173 20.4656 22.0344L16.4156 17.975C14.7099 19.4077 12.517 20.1266 10.2942 19.9817C8.07131 19.8369 5.9902 18.8394 4.48488 17.1975C2.97956 15.5555 2.16624 13.3958 2.21456 11.1688C2.26288 8.94175 3.1691 6.81934 4.74422 5.24422C6.31934 3.6691 8.44175 2.76288 10.6688 2.71456C12.8958 2.66624 15.0555 3.47956 16.6975 4.98488C18.3394 6.4902 19.3369 8.57131 19.4817 10.7942C19.6266 13.017 18.9077 15.2099 17.475 16.9156L21.5344 20.9656C21.6752 21.1078 21.7542 21.2999 21.7542 21.5C21.7542 21.7002 21.6752 21.8922 21.5344 22.0344ZM10.875 18.5C12.2842 18.5 13.6618 18.0822 14.8335 17.2992C16.0052 16.5163 16.9184 15.4036 17.4577 14.1016C17.9969 12.7997 18.138 11.3671 17.8631 9.985C17.5882 8.60289 16.9096 7.33334 15.9132 6.33689C14.9167 5.34044 13.6472 4.66185 12.265 4.38693C10.8829 4.11201 9.45033 4.25311 8.1484 4.79238C6.84648 5.33166 5.73371 6.24489 4.9508 7.41659C4.1679 8.58829 3.75002 9.96583 3.75002 11.375C3.7525 13.2639 4.50397 15.0748 5.83963 16.4104C7.17529 17.7461 8.98612 18.4975 10.875 18.5Z" fill="#8A91A8"/>
</svg>
